<svg width="130" height="127" fill="none" xmlns="http://www.w3.org/2000/svg"><path d="M129.5 63.5c0 34.783-28.867 63-64.5 63-35.633 0-64.5-28.217-64.5-63S29.367.5 65 .5c35.633 0 64.5 28.217 64.5 63z" fill="#fff" stroke="#333"/><path d="M58.65 47.19c0-4.356 3.667-6.034 9.548-6.034 8.562 0 19.43 2.597 27.992 7.169V22.097C86.86 18.407 77.55 17 68.216 17c-22.822 0-38.032 11.797-38.032 31.522 0 30.84 42.767 25.84 42.767 39.14 0 5.157-4.517 6.816-10.791 6.816-9.311 0-21.346-3.81-30.793-8.887v25.097a78.79 78.79 0 0030.774 6.328c23.397 0 39.513-9.963 39.513-30 0-33.241-43.004-27.285-43.004-39.825z" fill="#333"/></svg>